# xmcd
#
# Track frame offsets:
#	150
#	10349
#	23407
#	38165
#	49443
#	60450
#	71293
#	80773
#	92895
#	103672
#	112293
#	126106
#	137324
#	145811
#	157360
#	168990
#	182397
#	194979
#	203949
#	214149
#
# Disc length: 2991 seconds
#
# Revision: 0
# Processed by: cddbd v1.5.2PL0 Copyright (c) Steve Scherf et al.
# Submitted via: EasyCDDAExtractor 12.0.1.1
#
DISCID=270bad14
DTITLE=Charley Pride - Amazing Love/Country Feelin'/Pride Of America/Charley
DYEAR=2016
DGENRE=country
TTITLE0=Then Who Am I
TTITLE1=I Still Can't Leave Your Memory Alone
TTITLE2=Hard Times Will Be The Best Times
TTITLE3=Completely Helpless
TTITLE4=Mississippi Cotton Picking Delta Town
TTITLE5=She Loves Me The Way That I Love You
TTITLE6=Mary Go Round
TTITLE7=That Was Forever Ago
TTITLE8=Thorns Of Life
TTITLE9=North Wind
TTITLE10=Hope You're Feelin' Me (Like I'm Feelin' You)
TTITLE11=Searching For The Morning Sun
TTITLE12=Hardest Part Of Livin's Loving Me
TTITLE13=Now And Then
TTITLE14=Fools
TTITLE15=I Ain't All Bad
TTITLE16=She's As Close As I Can Get To Loving You
TTITLE17=One Mile More
TTITLE18=You're The Woman Behind Everything
TTITLE19=Loving Understanding Man
EXTD=
EXTT0=
EXTT1=
EXTT2=
EXTT3=
EXTT4=
EXTT5=
EXTT6=
EXTT7=
EXTT8=
EXTT9=
EXTT10=
EXTT11=
EXTT12=
EXTT13=
EXTT14=
EXTT15=
EXTT16=
EXTT17=
EXTT18=
EXTT19=
PLAYORDER=
